<?xml version="1.0" encoding="utf-8" standalone="no"?>
<!DOCTYPE svg PUBLIC "-//W3C//DTD SVG 1.1//EN"
  "http://www.w3.org/Graphics/SVG/1.1/DTD/svg11.dtd">
<!-- Created with matplotlib (https://matplotlib.org/) -->
<svg height="576pt" version="1.1" viewBox="0 0 864 576" width="864pt" xmlns="http://www.w3.org/2000/svg" xmlns:xlink="http://www.w3.org/1999/xlink">
 <defs>
  <style type="text/css">
*{stroke-linecap:butt;stroke-linejoin:round;}
  </style>
 </defs>
 <g id="figure_1">
  <g id="patch_1">
   <path d="M 0 576 
L 864 576 
L 864 0 
L 0 0 
z
" style="fill:#ffffff;"/>
  </g>
  <g id="axes_1">
   <g id="patch_2">
    <path d="M 108 512.64 
L 777.6 512.64 
L 777.6 69.12 
L 108 69.12 
z
" style="fill:#ffffff;"/>
   </g>
   <g id="matplotlib.axis_1">
    <g id="xtick_1">
     <g id="line2d_1">
      <defs>
       <path d="M 0 0 
L 0 3.5 
" id="m9c11fa22a4" style="stroke:#000000;stroke-width:0.8;"/>
      </defs>
      <g>
       <use style="stroke:#000000;stroke-width:0.8;" x="108" xlink:href="#m9c11fa22a4" y="512.64"/>
      </g>
     </g>
     <g id="line2d_2">
      <defs>
       <path d="M 0 0 
L 0 -3.5 
" id="mdde35ee481" style="stroke:#000000;stroke-width:0.8;"/>
      </defs>
      <g>
       <use style="stroke:#000000;stroke-width:0.8;" x="108" xlink:href="#mdde35ee481" y="69.12"/>
      </g>
     </g>
    </g>
    <g id="xtick_2">
     <g id="line2d_3">
      <g>
       <use style="stroke:#000000;stroke-width:0.8;" x="235.542857" xlink:href="#m9c11fa22a4" y="512.64"/>
      </g>
     </g>
     <g id="line2d_4">
      <g>
       <use style="stroke:#000000;stroke-width:0.8;" x="235.542857" xlink:href="#mdde35ee481" y="69.12"/>
      </g>
     </g>
    </g>
    <g id="xtick_3">
     <g id="line2d_5">
      <g>
       <use style="stroke:#000000;stroke-width:0.8;" x="363.085714" xlink:href="#m9c11fa22a4" y="512.64"/>
      </g>
     </g>
     <g id="line2d_6">
      <g>
       <use style="stroke:#000000;stroke-width:0.8;" x="363.085714" xlink:href="#mdde35ee481" y="69.12"/>
      </g>
     </g>
    </g>
    <g id="xtick_4">
     <g id="line2d_7">
      <g>
       <use style="stroke:#000000;stroke-width:0.8;" x="490.628571" xlink:href="#m9c11fa22a4" y="512.64"/>
      </g>
     </g>
     <g id="line2d_8">
      <g>
       <use style="stroke:#000000;stroke-width:0.8;" x="490.628571" xlink:href="#mdde35ee481" y="69.12"/>
      </g>
     </g>
    </g>
    <g id="xtick_5">
     <g id="line2d_9">
      <g>
       <use style="stroke:#000000;stroke-width:0.8;" x="618.171429" xlink:href="#m9c11fa22a4" y="512.64"/>
      </g>
     </g>
     <g id="line2d_10">
      <g>
       <use style="stroke:#000000;stroke-width:0.8;" x="618.171429" xlink:href="#mdde35ee481" y="69.12"/>
      </g>
     </g>
    </g>
    <g id="xtick_6">
     <g id="line2d_11">
      <g>
       <use style="stroke:#000000;stroke-width:0.8;" x="745.714286" xlink:href="#m9c11fa22a4" y="512.64"/>
      </g>
     </g>
     <g id="line2d_12">
      <g>
       <use style="stroke:#000000;stroke-width:0.8;" x="745.714286" xlink:href="#mdde35ee481" y="69.12"/>
      </g>
     </g>
    </g>
   </g>
   <g id="matplotlib.axis_2">
    <g id="ytick_1">
     <g id="line2d_13">
      <defs>
       <path d="M 0 0 
L -3.5 0 
" id="m63ffe52661" style="stroke:#000000;stroke-width:0.8;"/>
      </defs>
      <g>
       <use style="stroke:#000000;stroke-width:0.8;" x="108" xlink:href="#m63ffe52661" y="512.64"/>
      </g>
     </g>
     <g id="line2d_14">
      <defs>
       <path d="M 0 0 
L 3.5 0 
" id="m09b4e7f81f" style="stroke:#000000;stroke-width:0.8;"/>
      </defs>
      <g>
       <use style="stroke:#000000;stroke-width:0.8;" x="777.6" xlink:href="#m09b4e7f81f" y="512.64"/>
      </g>
     </g>
    </g>
    <g id="ytick_2">
     <g id="line2d_15">
      <g>
       <use style="stroke:#000000;stroke-width:0.8;" x="108" xlink:href="#m63ffe52661" y="423.936"/>
      </g>
     </g>
     <g id="line2d_16">
      <g>
       <use style="stroke:#000000;stroke-width:0.8;" x="777.6" xlink:href="#m09b4e7f81f" y="423.936"/>
      </g>
     </g>
    </g>
    <g id="ytick_3">
     <g id="line2d_17">
      <g>
       <use style="stroke:#000000;stroke-width:0.8;" x="108" xlink:href="#m63ffe52661" y="335.232"/>
      </g>
     </g>
     <g id="line2d_18">
      <g>
       <use style="stroke:#000000;stroke-width:0.8;" x="777.6" xlink:href="#m09b4e7f81f" y="335.232"/>
      </g>
     </g>
    </g>
    <g id="ytick_4">
     <g id="line2d_19">
      <g>
       <use style="stroke:#000000;stroke-width:0.8;" x="108" xlink:href="#m63ffe52661" y="246.528"/>
      </g>
     </g>
     <g id="line2d_20">
      <g>
       <use style="stroke:#000000;stroke-width:0.8;" x="777.6" xlink:href="#m09b4e7f81f" y="246.528"/>
      </g>
     </g>
    </g>
    <g id="ytick_5">
     <g id="line2d_21">
      <g>
       <use style="stroke:#000000;stroke-width:0.8;" x="108" xlink:href="#m63ffe52661" y="157.824"/>
      </g>
     </g>
     <g id="line2d_22">
      <g>
       <use style="stroke:#000000;stroke-width:0.8;" x="777.6" xlink:href="#m09b4e7f81f" y="157.824"/>
      </g>
     </g>
    </g>
    <g id="ytick_6">
     <g id="line2d_23">
      <g>
       <use style="stroke:#000000;stroke-width:0.8;" x="108" xlink:href="#m63ffe52661" y="69.12"/>
      </g>
     </g>
     <g id="line2d_24">
      <g>
       <use style="stroke:#000000;stroke-width:0.8;" x="777.6" xlink:href="#m09b4e7f81f" y="69.12"/>
      </g>
     </g>
    </g>
   </g>
   <g id="line2d_25">
    <path clip-path="url(#p41ccd627c8)" d="M -1 427.48558 
L 681.942857 427.48558 
" style="fill:none;stroke:#000000;stroke-linecap:square;stroke-width:1.5;"/>
   </g>
   <g id="line2d_26">
    <path clip-path="url(#p41ccd627c8)" d="M -1 290.88 
L 681.942857 290.88 
" style="fill:none;stroke:#000000;stroke-linecap:square;stroke-width:1.5;"/>
   </g>
   <g id="line2d_27">
    <path clip-path="url(#p41ccd627c8)" d="M 128.458323 -1 
L 132.552738 11.745924 
L 137.463285 26.420651 
L 142.373833 40.504385 
L 147.284381 54.017098 
L 152.194928 66.978035 
L 157.105476 79.405746 
L 162.016023 91.318115 
L 166.926571 102.732387 
L 171.837118 113.666194 
L 176.747666 124.138738 
L 181.658214 134.168251 
L 186.568761 143.772332 
L 191.479309 152.967998 
L 196.389856 161.771696 
L 201.300404 170.199333 
L 206.210951 178.266458 
L 211.121499 185.988794 
L 216.032046 193.381123 
L 220.942594 200.457689 
L 225.853142 207.232296 
L 230.763689 213.718332 
L 235.674237 219.928772 
L 240.584784 225.876231 
L 245.495332 231.572781 
L 250.405879 237.029482 
L 255.316427 242.256986 
L 260.226975 247.265648 
L 265.137522 252.065523 
L 270.04807 256.666391 
L 274.958617 261.077771 
L 279.869165 265.308588 
L 284.779712 269.366758 
L 289.69026 273.259885 
L 294.600808 276.99538 
L 299.511355 280.580462 
L 304.421903 284.022159 
L 309.33245 287.327341 
L 314.242998 290.502548 
L 319.153545 293.553416 
L 324.064093 296.485233 
L 328.974641 299.303168 
L 333.885188 302.012282 
L 338.795736 304.617513 
L 343.706283 307.123695 
L 348.616831 309.535547 
" style="fill:none;stroke:#000000;stroke-linecap:square;stroke-width:1.5;"/>
   </g>
   <g id="line2d_28">
    <path clip-path="url(#p41ccd627c8)" d="M 348.616831 309.535547 
L 355.419403 312.728566 
L 362.221975 315.758278 
L 369.024547 318.634017 
L 375.827119 321.364897 
L 382.629691 323.959793 
L 389.432263 326.427271 
L 396.234835 328.774572 
L 403.037407 331.00807 
L 409.839979 333.133991 
L 416.64255 335.158443 
L 423.445122 337.087407 
L 430.247694 338.926645 
L 437.050266 340.680898 
L 443.852838 342.354373 
L 450.65541 343.951218 
L 457.457982 345.475526 
L 464.260554 346.931329 
L 471.063126 348.322578 
L 477.865698 349.652626 
L 484.66827 350.924254 
L 491.470842 352.140213 
L 498.273414 353.303238 
L 505.075986 354.41606 
L 511.878558 355.481377 
L 518.68113 356.501757 
L 525.483702 357.479215 
L 532.286274 358.415554 
L 539.088846 359.312581 
L 545.891418 360.172108 
L 552.69399 360.995949 
L 559.496562 361.78593 
L 566.299134 362.543802 
L 573.101706 363.270908 
L 579.904278 363.968434 
L 586.70685 364.637566 
L 593.509422 365.279499 
L 600.311994 365.895442 
L 607.114566 366.486617 
L 613.917137 367.054246 
L 620.719709 367.599394 
L 627.522281 368.122855 
L 634.324853 368.625401 
L 641.127425 369.107822 
L 647.929997 369.570926 
L 654.732569 370.015525 
L 661.535141 370.442441 
L 668.337713 370.852505 
L 675.140285 371.24646 
L 681.942857 371.62485 
" style="fill:none;stroke:#000000;stroke-linecap:square;stroke-width:1.5;"/>
   </g>
   <g id="line2d_29">
    <path clip-path="url(#p41ccd627c8)" d="M 348.616831 577 
L 348.616831 -1 
" style="fill:none;stroke:#000000;stroke-dasharray:5.55,2.4;stroke-dashoffset:0;stroke-width:1.5;"/>
   </g>
   <g id="patch_3">
    <path d="M 108 512.64 
L 108 69.12 
" style="fill:none;stroke:#000000;stroke-linecap:square;stroke-linejoin:miter;stroke-width:0.8;"/>
   </g>
   <g id="patch_4">
    <path d="M 777.6 512.64 
L 777.6 69.12 
" style="fill:none;stroke:#000000;stroke-linecap:square;stroke-linejoin:miter;stroke-width:0.8;"/>
   </g>
   <g id="patch_5">
    <path d="M 108 512.64 
L 777.6 512.64 
" style="fill:none;stroke:#000000;stroke-linecap:square;stroke-linejoin:miter;stroke-width:0.8;"/>
   </g>
   <g id="patch_6">
    <path d="M 108 69.12 
L 777.6 69.12 
" style="fill:none;stroke:#000000;stroke-linecap:square;stroke-linejoin:miter;stroke-width:0.8;"/>
   </g>
   <g id="patch_7">
    <path d="M 155.104433 68.899023 
Q 155.895218 70.900357 156.686003 72.901692 
L 156.220987 73.085433 
Q 157.72903 78.942934 159.237073 84.800436 
Q 156.333984 79.494157 153.430895 74.187878 
L 152.96588 74.371619 
Q 152.175095 72.370285 151.38431 70.368951 
L 155.104433 68.899023 
z
" style="stroke:#000000;stroke-linecap:round;"/>
   </g>
   <g id="patch_8">
    <path d="M 170.802481 106.748714 
Q 171.303364 107.816929 171.804247 108.885144 
L 171.351543 109.097416 
Q 173.22007 114.84896 175.088597 120.600503 
Q 171.861959 115.485775 168.63532 110.371046 
L 168.182616 110.583317 
Q 167.681733 109.515102 167.18085 108.446887 
L 170.802481 106.748714 
z
" style="stroke:#000000;stroke-linecap:round;"/>
   </g>
   <g id="patch_9">
    <path d="M 186.688482 139.750699 
Q 186.941801 140.225073 187.19512 140.699447 
L 186.754067 140.934972 
Q 188.918084 146.579571 191.0821 152.22417 
Q 187.594924 147.286147 184.107749 142.348124 
L 183.666696 142.58365 
Q 183.413377 142.109276 183.160058 141.634902 
L 186.688482 139.750699 
z
" style="stroke:#000000;stroke-linecap:round;"/>
   </g>
   <g id="patch_10">
    <path d="M 202.256478 168.88513 
Q 204.735572 174.400254 207.214667 179.915378 
Q 203.454283 175.180189 199.6939 170.445 
z
" style="stroke:#000000;stroke-linecap:round;"/>
   </g>
   <g id="patch_11">
    <path d="M 217.846411 193.364693 
Q 220.650851 198.721708 223.455291 204.078724 
Q 219.418492 199.576863 215.381692 195.075002 
z
" style="stroke:#000000;stroke-linecap:round;"/>
   </g>
   <g id="patch_12">
    <path d="M 233.307168 214.705914 
Q 236.548924 219.810178 239.79068 224.914443 
Q 235.392236 220.765203 230.993792 216.615964 
z
" style="stroke:#000000;stroke-linecap:round;"/>
   </g>
   <g id="patch_13">
    <path d="M 249.052967 233.398393 
Q 252.614315 238.285038 256.175663 243.171683 
Q 251.521028 239.312036 246.866394 235.452389 
z
" style="stroke:#000000;stroke-linecap:round;"/>
   </g>
   <g id="patch_14">
    <path d="M 264.876449 249.765396 
Q 268.742114 254.415034 272.607778 259.064673 
Q 267.716531 255.509648 262.825284 251.954623 
z
" style="stroke:#000000;stroke-linecap:round;"/>
   </g>
   <g id="patch_15">
    <path d="M 280.608836 264.145831 
Q 284.844556 268.461058 289.080276 272.776284 
Q 283.912676 269.636473 278.745077 266.496661 
z
" style="stroke:#000000;stroke-linecap:round;"/>
   </g>
   <g id="patch_16">
    <path d="M 296.60802 276.713837 
Q 301.090924 280.771678 305.573828 284.829519 
Q 300.230007 282.000019 294.886185 279.170519 
z
" style="stroke:#000000;stroke-linecap:round;"/>
   </g>
   <g id="patch_17">
    <path d="M 312.685821 287.769164 
Q 317.386496 291.572604 322.087171 295.376044 
Q 316.594901 292.846722 311.102631 290.317401 
z
" style="stroke:#000000;stroke-linecap:round;"/>
   </g>
   <g id="patch_18">
    <path d="M 359.949575 316.511979 
Q 354.836824 313.283624 349.724073 310.055269 
Q 355.474181 311.925766 361.224288 313.796264 
z
" style="stroke:#000000;stroke-linecap:round;"/>
   </g>
   <g id="patch_19">
    <path d="M 382.494051 325.657682 
Q 377.205387 322.726379 371.916724 319.795076 
Q 377.764211 321.33436 383.611698 322.873644 
z
" style="stroke:#000000;stroke-linecap:round;"/>
   </g>
   <g id="patch_20">
    <path d="M 405.054508 333.24913 
Q 399.587872 330.664871 394.121237 328.080611 
Q 400.055793 329.239722 405.99035 330.398832 
z
" style="stroke:#000000;stroke-linecap:round;"/>
   </g>
   <g id="patch_21">
    <path d="M 427.468768 339.787508 
Q 421.900962 337.42911 416.333157 335.070711 
Q 422.310174 335.986007 428.287191 336.901303 
z
" style="stroke:#000000;stroke-linecap:round;"/>
   </g>
   <g id="patch_22">
    <path d="M 449.844904 345.373182 
Q 444.197779 343.211592 438.550653 341.050002 
Q 444.556105 341.75502 450.561556 342.460037 
z
" style="stroke:#000000;stroke-linecap:round;"/>
   </g>
   <g id="patch_23">
    <path d="M 472.192551 350.162802 
Q 466.482354 348.173794 460.772158 346.184785 
Q 466.796258 346.707007 472.820359 347.229228 
z
" style="stroke:#000000;stroke-linecap:round;"/>
   </g>
   <g id="patch_24">
    <path d="M 494.545531 354.213588 
Q 488.771118 352.419525 482.996706 350.625463 
Q 489.035059 350.94293 495.073413 351.260397 
z
" style="stroke:#000000;stroke-linecap:round;"/>
   </g>
   <g id="patch_25">
    <path d="M 516.846637 357.777685 
Q 511.034925 356.108401 505.223214 354.439116 
Q 511.267004 354.626463 517.310795 354.81381 
z
" style="stroke:#000000;stroke-linecap:round;"/>
   </g>
   <g id="patch_26">
    <path d="M 539.134633 360.87234 
Q 533.292946 359.311189 527.451259 357.750039 
Q 533.497485 357.8252 539.543711 357.900361 
z
" style="stroke:#000000;stroke-linecap:round;"/>
   </g>
   <g id="patch_27">
    <path d="M 561.427359 363.520234 
Q 555.553929 362.083114 549.680498 360.645993 
Q 555.72696 360.593127 561.773422 360.540261 
z
" style="stroke:#000000;stroke-linecap:round;"/>
   </g>
   <g id="patch_28">
    <path d="M 583.694953 365.864989 
Q 577.802752 364.506879 571.910551 363.148769 
Q 577.955758 363.014703 584.000964 362.880637 
z
" style="stroke:#000000;stroke-linecap:round;"/>
   </g>
   <g id="patch_29">
    <path d="M 605.957088 367.912717 
Q 600.049165 366.624712 594.141243 365.336708 
Q 600.18443 365.130824 606.227618 364.924939 
z
" style="stroke:#000000;stroke-linecap:round;"/>
   </g>
   <g id="patch_30">
    <path d="M 628.214248 369.704804 
Q 622.293334 368.477906 616.37242 367.251009 
Q 622.413158 366.9827 628.453895 366.714391 
z
" style="stroke:#000000;stroke-linecap:round;"/>
   </g>
   <g id="patch_31">
    <path d="M 650.474391 371.247615 
Q 644.539187 370.091823 638.603983 368.936032 
Q 644.641068 368.595287 650.678153 368.254543 
z
" style="stroke:#000000;stroke-linecap:round;"/>
   </g>
   <g id="patch_32">
    <path d="M 672.723813 372.619626 
Q 666.779814 371.509955 660.835814 370.400285 
Q 666.870071 370.012673 672.904328 369.625062 
z
" style="stroke:#000000;stroke-linecap:round;"/>
   </g>
   <g id="text_1">
    <!-- Growth Rate -->
    <defs>
     <path d="M 62.09375 19.65625 
C 62.09375 23.484375 62.40625 24 68.59375 24 
L 68.59375 26.59375 
C 66.203125 26.390625 60.796875 26.390625 58.09375 26.390625 
C 55.296875 26.390625 47.5 26.5 43.703125 26.59375 
L 43.703125 24 
L 46.703125 24 
C 55.296875 24 55.5 22.875 55.5 19.25 
L 55.5 12.59375 
C 55.5 1.5 42.5 0.59375 39.40625 0.59375 
C 29.09375 0.59375 12.203125 7.75 12.203125 34.046875 
C 12.203125 60.34375 28.796875 67.390625 38.5 67.390625 
C 49.796875 67.390625 58 57.515625 59.90625 43.515625 
C 60.09375 42.3125 60.09375 42.109375 61 42.109375 
C 62.09375 42.109375 62.09375 42.3125 62.09375 44.125 
L 62.09375 67.984375 
C 62.09375 69.796875 62 69.890625 61.40625 69.890625 
C 61 69.890625 60.90625 69.796875 60.203125 68.59375 
L 55.796875 60.140625 
C 50.90625 66.390625 44.90625 70 37.203125 70 
C 20.09375 70 4.59375 54.796875 4.59375 34.046875 
C 4.59375 13.40625 19.796875 -2 37.40625 -2 
C 45.5 -2 53.40625 0.890625 56.5 6.640625 
C 58.203125 2.515625 61 -0.3125 61.5 -0.3125 
C 62 -0.3125 62.09375 -0.203125 62.09375 1.59375 
z
" id="CMR17-71"/>
     <path d="M 15 23.703125 
C 15 33.34375 19.09375 42.390625 26.59375 42.390625 
C 27.296875 42.390625 28 42.296875 28.703125 41.984375 
C 28.703125 41.984375 26.5 41.28125 26.5 38.671875 
C 26.5 36.265625 28.40625 35.265625 29.90625 35.265625 
C 31.09375 35.265625 33.296875 35.96875 33.296875 38.78125 
C 33.296875 41.984375 30.09375 44 26.703125 44 
C 19.09375 44 15.796875 36.5625 14.796875 33.046875 
L 14.703125 33.046875 
L 14.703125 44 
L 3.09375 42.890625 
L 3.09375 40.28125 
C 9 40.28125 9.90625 39.6875 9.90625 34.859375 
L 9.90625 6.921875 
C 9.90625 3.09375 9.5 2.59375 3.09375 2.59375 
L 3.09375 0 
C 5.5 0.1875 10.09375 0.1875 12.703125 0.1875 
C 15.59375 0.1875 20.703125 0.1875 23.40625 0 
L 23.40625 2.59375 
C 16.203125 2.59375 15 2.59375 15 7.109375 
z
" id="CMR17-114"/>
     <path d="M 43.09375 21.1875 
C 43.09375 34 33.796875 44 22.90625 44 
C 12 44 2.703125 34 2.703125 21.1875 
C 2.703125 8.59375 12 -1 22.90625 -1 
C 33.796875 -1 43.09375 8.59375 43.09375 21.1875 
z
M 22.90625 0.796875 
C 18.203125 0.796875 14.203125 3.59375 11.90625 7.5 
C 9.40625 12 9.09375 17.59375 9.09375 22 
C 9.09375 26.1875 9.296875 31.390625 11.90625 35.890625 
C 13.90625 39.1875 17.796875 42.390625 22.90625 42.390625 
C 27.40625 42.390625 31.203125 39.890625 33.59375 36.390625 
C 36.703125 31.6875 36.703125 25.09375 36.703125 22 
C 36.703125 18.09375 36.5 12.09375 33.796875 7.296875 
C 31 2.6875 26.703125 0.796875 22.90625 0.796875 
z
" id="CMR17-111"/>
     <path d="M 58.203125 34.15625 
C 60.203125 40.09375 64.203125 40.296875 65.703125 40.390625 
L 65.703125 43 
C 63.703125 42.890625 61.703125 42.796875 59.703125 42.796875 
C 57.796875 42.796875 53.5 42.796875 51.796875 43 
L 51.796875 40.390625 
C 54.90625 40.1875 56.59375 38.375 56.59375 35.875 
C 56.59375 35.171875 56.40625 34.265625 56.203125 33.5625 
L 46.796875 6.21875 
L 36.59375 35.875 
C 36.40625 36.578125 36.09375 37.375 36.09375 37.78125 
C 36.09375 40.390625 39.5 40.390625 41.09375 40.390625 
L 41.09375 43 
C 38.796875 42.796875 34.59375 42.796875 32.203125 42.796875 
C 29.703125 42.796875 27.09375 42.796875 24.796875 43 
L 24.796875 40.390625 
C 30.296875 40.390625 30.296875 40.1875 32.40625 33.859375 
L 23.203125 6.921875 
L 13.296875 35.96875 
C 12.796875 37.28125 12.796875 37.484375 12.796875 37.78125 
C 12.796875 40.390625 16.203125 40.390625 17.796875 40.390625 
L 17.796875 43 
C 15.40625 42.796875 11.203125 42.796875 8.703125 42.796875 
C 6.5 42.796875 3.09375 42.796875 1 43 
L 1 40.390625 
C 5.40625 40.390625 6.5 40.09375 7.59375 36.765625 
L 19.90625 0.59375 
C 20.296875 -0.703125 20.59375 -1 21.40625 -1 
C 22.09375 -1 22.5 -0.8125 23 0.6875 
L 33.296875 31.046875 
L 43.703125 0.6875 
C 44.203125 -0.8125 44.59375 -1 45.296875 -1 
C 46.09375 -1 46.40625 -0.703125 46.796875 0.59375 
z
" id="CMR17-119"/>
     <path d="M 15.09375 40.390625 
L 29.09375 40.390625 
L 29.09375 43 
L 15.09375 43 
L 15.09375 62 
L 13.296875 62 
C 13.09375 51.4375 9.59375 42.1875 1.09375 41.984375 
L 1.09375 40.390625 
L 9.796875 40.390625 
L 9.796875 12.15625 
C 9.796875 10.234375 9.796875 -1 21.40625 -1 
C 27.296875 -1 30.703125 4.8125 30.703125 12.25 
L 30.703125 17.984375 
L 28.90625 17.984375 
L 28.90625 12.34375 
C 28.90625 5.421875 26.203125 0.796875 22 0.796875 
C 19.09375 0.796875 15.09375 2.796875 15.09375 11.953125 
z
" id="CMR17-116"/>
     <path d="M 41.5 30.53125 
C 41.5 35.65625 40.5 44 28.703125 44 
C 20.5 44 16.5 37.375 15.296875 34.046875 
L 15.203125 34.046875 
L 15.203125 69 
L 3.296875 67.890625 
L 3.296875 65.296875 
C 9.203125 65.296875 10.09375 64.703125 10.09375 60.046875 
L 10.09375 6.921875 
C 10.09375 3.09375 9.703125 2.59375 3.296875 2.59375 
L 3.296875 0 
C 5.703125 0.1875 10.09375 0.1875 12.703125 0.1875 
C 15.296875 0.1875 19.796875 0.1875 22.203125 0 
L 22.203125 2.59375 
C 15.796875 2.59375 15.40625 3 15.40625 6.921875 
L 15.40625 26.21875 
C 15.40625 35.453125 21 42.390625 28 42.390625 
C 35.40625 42.390625 36.203125 35.765625 36.203125 30.9375 
L 36.203125 6.921875 
C 36.203125 3.09375 35.796875 2.59375 29.40625 2.59375 
L 29.40625 0 
C 31.796875 0.1875 36.203125 0.1875 38.796875 0.1875 
C 41.40625 0.1875 45.90625 0.1875 48.296875 0 
L 48.296875 2.59375 
C 41.90625 2.59375 41.5 3 41.5 6.921875 
z
" id="CMR17-104"/>
     <path d="M 39.203125 33.6875 
C 48.703125 35.59375 56.703125 42.015625 56.703125 50.046875 
C 56.703125 59.46875 46.09375 68 32.09375 68 
L 5.203125 68 
L 5.203125 65.390625 
C 12.09375 65.390625 13.203125 65.390625 13.203125 60.875 
L 13.203125 6.6875 
C 13.203125 2.1875 12.09375 2.1875 5.203125 2.1875 
L 5.203125 -0.40625 
C 8.09375 -0.203125 13.296875 -0.203125 16.40625 -0.203125 
C 19.5 -0.203125 24.703125 -0.203125 27.59375 -0.40625 
L 27.59375 2.1875 
C 20.703125 2.1875 19.59375 2.1875 19.59375 6.6875 
L 19.59375 33 
L 31.296875 33 
C 37 33 40.203125 30.6875 41.59375 29.390625 
C 45.59375 25.5 45.59375 22.796875 45.59375 16 
C 45.59375 9.296875 45.59375 5.890625 48.59375 2.5 
C 52.40625 -1.609375 57.5 -2 59.703125 -2 
C 67.09375 -2 68.203125 6.296875 68.203125 8 
C 68.203125 8.59375 68.203125 9.296875 67.296875 9.296875 
C 66.5 9.296875 66.40625 8.6875 66.40625 8.296875 
C 65.90625 1.796875 63 -0.40625 59.90625 -0.40625 
C 54.40625 -0.40625 53.796875 5.890625 53.203125 12 
C 52.90625 14.09375 52.703125 15.59375 52.5 17.796875 
C 51.90625 22.796875 51.09375 30.09375 39.203125 33.6875 
z
M 31 34.59375 
L 19.59375 34.59375 
L 19.59375 61.484375 
C 19.59375 64.890625 19.796875 65.390625 23.796875 65.390625 
L 31.09375 65.390625 
C 39.40625 65.390625 49.09375 62.484375 49.09375 50.046875 
C 49.09375 37.09375 38.5 34.59375 31 34.59375 
z
" id="CMR17-82"/>
     <path d="M 36 25.875 
C 36 32 36 35.546875 31.796875 39.59375 
C 28.09375 42.984375 23.796875 44 20.40625 44 
C 12.5 44 6.796875 37.625 6.796875 30.890625 
C 6.796875 27.1875 9.796875 27 10.40625 27 
C 11.703125 27 14 27.796875 14 30.59375 
C 14 33.09375 12.09375 34.1875 10.40625 34.1875 
C 10 34.1875 9.5 34.09375 9.203125 34 
C 11.296875 40.53125 16.703125 42.390625 20.203125 42.390625 
C 25.203125 42.390625 30.703125 37.828125 30.703125 29.296875 
L 30.703125 25.5 
C 24.796875 25.296875 17.703125 24.5 12.09375 21.453125 
C 5.796875 17.921875 4 12.84375 4 9 
C 4 1.203125 13 -1 18.296875 -1 
C 23.796875 -1 28.90625 2.109375 31.09375 7.890625 
C 31.296875 3.421875 34.09375 -0.609375 38.5 -0.609375 
C 40.59375 -0.609375 45.90625 0.796875 45.90625 8.796875 
L 45.90625 14.46875 
L 44.09375 14.46875 
L 44.09375 8.703125 
C 44.09375 2.515625 41.40625 1.703125 40.09375 1.703125 
C 36 1.703125 36 6.96875 36 11.4375 
z
M 30.703125 13.859375 
C 30.703125 5.046875 24.5 0.59375 19 0.59375 
C 14 0.59375 10.09375 4.34375 10.09375 9 
C 10.09375 12.046875 11.40625 17.40625 17.203125 20.65625 
C 22 23.390625 27.5 23.796875 30.703125 24 
z
" id="CMR17-97"/>
     <path d="M 38.09375 23.484375 
C 38.5 23.890625 38.5 24.09375 38.5 25.09375 
C 38.5 35.171875 33.09375 44 21.703125 44 
C 11.09375 44 2.703125 33.984375 2.703125 21.78125 
C 2.703125 8.65625 12.203125 -1 22.796875 -1 
C 34 -1 38.40625 9.671875 38.40625 11.796875 
C 38.40625 12.5 37.796875 12.5 37.59375 12.5 
C 36.90625 12.5 36.796875 12.296875 36.40625 11.078125 
C 34.203125 4.21875 28.703125 0.796875 23.5 0.796875 
C 19.203125 0.796875 14.90625 3.21875 12.203125 7.65625 
C 9.09375 12.796875 9.09375 18.75 9.09375 23.484375 
z
M 9.203125 25 
C 9.90625 39.234375 17.59375 42.390625 21.59375 42.390625 
C 28.40625 42.390625 33 36.0625 33.09375 25 
z
" id="CMR17-101"/>
    </defs>
    <g transform="translate(108 60.2496)scale(0.26 -0.26)">
     <use transform="scale(0.996264)" xlink:href="#CMR17-71"/>
     <use transform="translate(72.355346 0)scale(0.996264)" xlink:href="#CMR17-114"/>
     <use transform="translate(107.636114 0)scale(0.996264)" xlink:href="#CMR17-111"/>
     <use transform="translate(150.724137 0)scale(0.996264)" xlink:href="#CMR17-119"/>
     <use transform="translate(217.234017 0)scale(0.996264)" xlink:href="#CMR17-116"/>
     <use transform="translate(252.514785 0)scale(0.996264)" xlink:href="#CMR17-104"/>
     <use transform="translate(333.486121 0)scale(0.996264)" xlink:href="#CMR17-82"/>
     <use transform="translate(401.277223 0)scale(0.996264)" xlink:href="#CMR17-97"/>
     <use transform="translate(446.9677 0)scale(0.996264)" xlink:href="#CMR17-116"/>
     <use transform="translate(482.248468 0)scale(0.996264)" xlink:href="#CMR17-101"/>
    </g>
   </g>
   <g id="text_2">
    <!-- $m_{t}$ -->
    <defs>
     <path d="M 20.59375 29.21875 
C 20.796875 29.828125 23.296875 34.8125 27 38 
C 29.59375 40.390625 33 41.984375 36.90625 41.984375 
C 40.90625 41.984375 42.296875 39 42.296875 35.015625 
C 42.296875 34.40625 42.296875 32.421875 41.09375 27.734375 
L 38.59375 17.453125 
C 37.796875 14.453125 35.90625 7.078125 35.703125 5.984375 
C 35.296875 4.484375 34.703125 1.890625 34.703125 1.484375 
C 34.703125 0.09375 35.796875 -1 37.296875 -1 
C 40.296875 -1 40.796875 1.296875 41.703125 4.890625 
L 47.703125 28.71875 
C 47.90625 29.53125 53.09375 41.984375 64.09375 41.984375 
C 68.09375 41.984375 69.5 39 69.5 35.015625 
C 69.5 29.421875 65.59375 18.546875 63.40625 12.5625 
C 62.5 10.171875 62 8.875 62 7.078125 
C 62 2.59375 65.09375 -1 69.90625 -1 
C 79.203125 -1 82.703125 13.65625 82.703125 14.265625 
C 82.703125 14.765625 82.296875 15.15625 81.703125 15.15625 
C 80.796875 15.15625 80.703125 14.859375 80.203125 13.15625 
C 77.90625 5.1875 74.203125 1 70.203125 1 
C 69.203125 1 67.59375 1.09375 67.59375 4.28125 
C 67.59375 6.875 68.796875 10.078125 69.203125 11.171875 
C 71 15.953125 75.5 27.734375 75.5 33.515625 
C 75.5 39.5 72 44 64.40625 44 
C 57.703125 44 52.296875 40.203125 48.296875 34.3125 
C 48 39.703125 44.703125 44 37.203125 44 
C 28.296875 44 23.59375 37.703125 21.796875 35.203125 
C 21.5 40.890625 17.40625 44 13 44 
C 10.09375 44 7.796875 42.59375 5.90625 38.796875 
C 4.09375 35.203125 2.703125 29.125 2.703125 28.71875 
C 2.703125 28.328125 3.09375 27.828125 3.796875 27.828125 
C 4.59375 27.828125 4.703125 27.921875 5.296875 30.21875 
C 6.796875 36.109375 8.703125 41.984375 12.703125 41.984375 
C 15 41.984375 15.796875 40.390625 15.796875 37.40625 
C 15.796875 35.203125 14.796875 31.3125 14.09375 28.234375 
L 11.296875 17.453125 
C 10.90625 15.5625 9.796875 11.0625 9.296875 9.265625 
C 8.59375 6.671875 7.5 1.984375 7.5 1.484375 
C 7.5 0.09375 8.59375 -1 10.09375 -1 
C 11.296875 -1 12.703125 -0.40625 13.5 1.09375 
C 13.703125 1.59375 14.59375 5.078125 15.09375 7.078125 
L 17.296875 16.0625 
z
" id="CMMI12-109"/>
     <path d="M 20.09375 40.09375 
L 29.296875 40.09375 
C 31.203125 40.09375 32.203125 40.09375 32.203125 41.890625 
C 32.203125 43 31.59375 43 29.59375 43 
L 20.796875 43 
L 24.5 57.25 
C 24.90625 58.625 24.90625 58.8125 24.90625 59.5 
C 24.90625 61.09375 23.59375 62 22.296875 62 
C 21.5 62 19.203125 61.6875 18.40625 58.53125 
L 14.5 43 
L 5.09375 43 
C 3.09375 43 2.203125 43 2.203125 41.09375 
C 2.203125 40.09375 2.90625 40.09375 4.796875 40.09375 
L 13.703125 40.09375 
L 7.09375 13.765625 
C 6.296875 10.265625 6 9.265625 6 7.96875 
C 6 3.28125 9.296875 -1 14.90625 -1 
C 25 -1 30.40625 13.5625 30.40625 14.265625 
C 30.40625 14.859375 30 15.15625 29.40625 15.15625 
C 29.203125 15.15625 28.796875 15.15625 28.59375 14.75 
C 28.5 14.65625 28.40625 14.5625 27.703125 12.96875 
C 25.59375 7.96875 21 1 15.203125 1 
C 12.203125 1 12 3.484375 12 5.6875 
C 12 5.78125 12 7.671875 12.296875 8.875 
z
" id="CMMI12-116"/>
    </defs>
    <g transform="translate(780.788571 512.64)scale(0.26 -0.26)">
     <use transform="translate(0 14.943915)scale(0.996264)" xlink:href="#CMMI12-109"/>
     <use transform="translate(85.327224 0)scale(0.697382)" xlink:href="#CMMI12-116"/>
    </g>
   </g>
   <g id="text_3">
    <!-- $\mathsf{E}_{t}[c_{t+1}/c_{t}]$ -->
    <defs>
     <path d="M 30.59375 6.796875 
C 22.59375 6.796875 19 6.796875 17.203125 6.6875 
L 17.203125 32.890625 
L 48.203125 32.890625 
L 48.203125 39 
L 17.203125 39 
L 17.203125 62.390625 
L 30.09375 62.390625 
C 31.296875 62.390625 32.5 62.296875 33.703125 62.296875 
L 50.796875 62.296875 
L 50.796875 68.796875 
L 8.796875 68.796875 
L 8.796875 0 
L 52.09375 0 
L 52.09375 6.890625 
z
" id="CMSS17-69"/>
     <path d="M 23.5 -25 
L 23.5 -21.5 
L 14.09375 -21.5 
L 14.09375 71.484375 
L 23.5 71.484375 
L 23.5 75 
L 10.59375 75 
L 10.59375 -25 
z
" id="CMR17-91"/>
     <path d="M 39.09375 38 
C 37.203125 38 36.296875 38 34.90625 36.796875 
C 34.296875 36.296875 33.203125 34.796875 33.203125 33.1875 
C 33.203125 31.1875 34.703125 29.984375 36.59375 29.984375 
C 39 29.984375 41.703125 31.984375 41.703125 35.984375 
C 41.703125 40.484375 37.09375 44 30.203125 44 
C 17.09375 44 4 30.1875 4 15.796875 
C 4 6.96875 9.40625 -1 19.59375 -1 
C 33.203125 -1 41.796875 9.71875 41.796875 11.03125 
C 41.796875 11.640625 41.203125 12.140625 40.796875 12.140625 
C 40.5 12.140625 40.40625 12.046875 39.5 11.125 
C 33.09375 2.515625 23.59375 1 19.796875 1 
C 12.90625 1 10.703125 7.078125 10.703125 12.140625 
C 10.703125 15.6875 12.40625 25.53125 16 32.390625 
C 18.59375 37.09375 24 41.984375 30.296875 41.984375 
C 31.59375 41.984375 37.09375 41.8125 39.09375 38 
z
" id="CMMI12-99"/>
     <path d="M 37.703125 23 
L 64.203125 23 
C 65.59375 23 67.296875 23 67.296875 24.6875 
C 67.296875 26.5 65.703125 26.5 64.203125 26.5 
L 37.703125 26.5 
L 37.703125 52.890625 
C 37.703125 54.296875 37.703125 56 36 56 
C 34.203125 56 34.203125 54.390625 34.203125 52.890625 
L 34.203125 26.5 
L 7.703125 26.5 
C 6.296875 26.5 4.59375 26.5 4.59375 24.796875 
C 4.59375 23 6.203125 23 7.703125 23 
L 34.203125 23 
L 34.203125 -3.03125 
C 34.203125 -4.40625 34.203125 -6.109375 35.90625 -6.109375 
C 37.703125 -6.109375 37.703125 -4.515625 37.703125 -3.03125 
z
" id="CMR17-43"/>
     <path d="M 26.59375 63.796875 
C 26.59375 65.890625 26.5 66 25.09375 66 
C 21.203125 61.359375 15.296875 59.890625 9.703125 59.6875 
C 9.40625 59.6875 8.90625 59.6875 8.796875 59.5 
C 8.703125 59.296875 8.703125 59.09375 8.703125 57 
C 11.796875 57 17 57.59375 21 59.984375 
L 21 7.296875 
C 21 3.796875 20.796875 2.59375 12.203125 2.59375 
L 9.203125 2.59375 
L 9.203125 0 
C 14 0.09375 19 0.1875 23.796875 0.1875 
C 28.59375 0.1875 33.59375 0.09375 38.40625 0 
L 38.40625 2.59375 
L 35.40625 2.59375 
C 26.796875 2.59375 26.59375 3.6875 26.59375 7.296875 
z
" id="CMR17-49"/>
     <path d="M 42.90625 71.296875 
C 42.90625 71.390625 43.5 72.890625 43.5 73.09375 
C 43.5 74.296875 42.5 75 41.703125 75 
C 41.203125 75 40.296875 75 39.5 72.796875 
L 6 -21.3125 
C 6 -21.40625 5.40625 -22.90625 5.40625 -23.109375 
C 5.40625 -24.3125 6.40625 -25 7.203125 -25 
C 7.796875 -25 8.703125 -24.90625 9.40625 -22.8125 
z
" id="CMMI12-61"/>
     <path d="M 14.296875 75 
L 1.40625 75 
L 1.40625 71.484375 
L 10.796875 71.484375 
L 10.796875 -21.5 
L 1.40625 -21.5 
L 1.40625 -25 
L 14.296875 -25 
z
" id="CMR17-93"/>
    </defs>
    <g transform="translate(681.942857 379.584)scale(0.22 -0.22)">
     <use transform="translate(0 14.943915)scale(0.996264)" xlink:href="#CMSS17-69"/>
     <use transform="translate(55.892013 0)scale(0.697382)" xlink:href="#CMMI12-116"/>
     <use transform="translate(81.048455 14.943915)scale(0.996264)" xlink:href="#CMR17-91"/>
     <use transform="translate(105.919513 14.943915)scale(0.996264)" xlink:href="#CMMI12-99"/>
     <use transform="translate(147.902747 0)scale(0.697382)" xlink:href="#CMMI12-116"/>
     <use transform="translate(172.561056 0)scale(0.697382)" xlink:href="#CMR17-43"/>
     <use transform="translate(222.761188 0)scale(0.697382)" xlink:href="#CMR17-49"/>
     <use transform="translate(255.242502 14.943915)scale(0.996264)" xlink:href="#CMMI12-61"/>
     <use transform="translate(304.017421 14.943915)scale(0.996264)" xlink:href="#CMMI12-99"/>
     <use transform="translate(346.000654 0)scale(0.697382)" xlink:href="#CMMI12-116"/>
     <use transform="translate(371.157096 14.943915)scale(0.996264)" xlink:href="#CMR17-93"/>
    </g>
   </g>
   <g id="text_4">
    <!-- $\check{m}$ -->
    <defs>
     <path d="M 22.90625 56 
L 11.703125 64 
L 10.703125 62.59375 
L 22.90625 51.984375 
L 35.09375 62.59375 
L 34.09375 64 
z
" id="CMR17-20"/>
    </defs>
    <g transform="translate(348.616831 534.816)scale(0.26 -0.26)">
     <use transform="translate(19.818381 0.006461)scale(0.996264)" xlink:href="#CMR17-20"/>
     <use transform="scale(0.996264)" xlink:href="#CMMI12-109"/>
    </g>
   </g>
   <g id="text_5">
    <!-- $\Phi = (\mathrm{\mathsf{R}}\beta)^{1/\rho}$ -->
    <defs>
     <path d="M 36.40625 13.296875 
C 52.59375 14.6875 62.09375 24.515625 62.09375 33.9375 
C 62.09375 43.765625 52.203125 53.296875 36.40625 54.6875 
L 36.40625 60.609375 
C 36.40625 64.34375 36.59375 65.390625 44.203125 65.390625 
L 46.40625 65.390625 
L 46.40625 68 
C 42.296875 67.796875 37.5 67.796875 33.296875 67.796875 
C 29.09375 67.796875 24.203125 67.796875 20.09375 68 
L 20.09375 65.390625 
L 22.296875 65.390625 
C 29.90625 65.390625 30.09375 64.34375 30.09375 60.609375 
L 30.09375 54.6875 
C 14.40625 53.296875 4.59375 43.65625 4.59375 34.046875 
C 4.59375 24.03125 14.796875 14.6875 30.09375 13.296875 
L 30.09375 7.375 
C 30.09375 3.625 29.90625 2.59375 22.296875 2.59375 
L 20.09375 2.59375 
L 20.09375 0 
C 24.203125 0.1875 29.09375 0.1875 33.296875 0.1875 
C 37.5 0.1875 42.296875 0.1875 46.40625 0 
L 46.40625 2.59375 
L 44.203125 2.59375 
C 36.59375 2.59375 36.40625 3.625 36.40625 7.375 
z
M 30.09375 15 
C 21.09375 15.96875 12 21.015625 12 33.9375 
C 12 47.25 21.40625 52.109375 30.09375 53 
z
M 36.40625 53 
C 44.296875 52.3125 54.703125 47.9375 54.703125 34.046875 
C 54.703125 19.75 43.90625 15.671875 36.40625 15 
z
" id="CMR17-8"/>
     <path d="M 64.296875 32 
C 65.796875 32 67.296875 32 67.296875 33.6875 
C 67.296875 35.5 65.59375 35.5 63.90625 35.5 
L 8 35.5 
C 6.296875 35.5 4.59375 35.5 4.59375 33.6875 
C 4.59375 32 6.09375 32 7.59375 32 
z
M 63.90625 14.484375 
C 65.59375 14.484375 67.296875 14.484375 67.296875 16.296875 
C 67.296875 18 65.796875 18 64.296875 18 
L 7.59375 18 
C 6.09375 18 4.59375 18 4.59375 16.296875 
C 4.59375 14.484375 6.296875 14.484375 8 14.484375 
z
" id="CMR17-61"/>
     <path d="M 30.59375 -24.40625 
C 30.59375 -24.3125 30.59375 -24.109375 30.296875 -23.8125 
C 25.703125 -19.109375 13.40625 -6.296875 13.40625 24.9375 
C 13.40625 56.171875 25.5 68.875 30.40625 73.890625 
C 30.40625 73.984375 30.59375 74.1875 30.59375 74.484375 
C 30.59375 74.796875 30.296875 75 29.90625 75 
C 28.796875 75 20.296875 67.578125 15.40625 56.5625 
C 10.40625 45.453125 9 34.65625 9 25.046875 
C 9 17.828125 9.703125 5.625 15.703125 -7.296875 
C 20.5 -17.703125 28.703125 -25 29.90625 -25 
C 30.40625 -25 30.59375 -24.8125 30.59375 -24.40625 
z
" id="CMR17-40"/>
     <path d="M 39.40625 32.796875 
L 39.59375 32.890625 
C 55.203125 38.28125 55.296875 48.828125 55.296875 50.6875 
C 55.296875 59.96875 45.703125 69 31.296875 69 
L 8.90625 69 
L 8.90625 0 
L 17.09375 0 
L 17.09375 31.890625 
L 31.796875 31.890625 
L 49.5 0 
L 57.90625 0 
z
M 17.09375 38 
L 17.09375 63.390625 
L 30.203125 63.390625 
C 42.90625 63.390625 47.40625 56.359375 47.40625 50.6875 
C 47.40625 45.421875 43.40625 38 30.203125 38 
z
" id="CMSS17-82"/>
     <path d="M 56.59375 58.421875 
C 56.59375 64.546875 51.5 71 42.40625 71 
C 29.5 71 21.296875 54.84375 18.703125 44.21875 
L 2.90625 -18 
C 2.703125 -18.8125 3.296875 -19 3.796875 -19 
C 4.5 -19 5 -18.90625 5.09375 -18.40625 
L 12.09375 9.25 
C 13.09375 3.609375 18.59375 -1 24.5 -1 
C 38.796875 -1 52.296875 10.265625 52.296875 25.28125 
C 52.296875 29.109375 51.40625 32.9375 49.296875 36.15625 
C 48.09375 38.078125 46.59375 39.484375 45 40.609375 
C 52.203125 44.109375 56.59375 50.34375 56.59375 58.421875 
z
M 39.203125 40.703125 
C 37.59375 40.171875 36 40 34.09375 40 
C 32.703125 40 31.40625 39.890625 29.59375 40.4375 
C 30.59375 41.046875 32.09375 41.234375 34.203125 41.234375 
C 36 41.234375 37.796875 41.046875 39.203125 40.703125 
z
M 51.40625 59.34375 
C 51.40625 53.71875 48.703125 45.546875 42.203125 41.9375 
C 40.296875 42.546875 37.703125 43 35.5 43 
C 33.40625 43 27.40625 43.203125 27.40625 40.34375 
C 27.40625 37.671875 32.90625 37.96875 34.59375 37.96875 
C 37.203125 37.96875 39.5 38.578125 41.90625 39.28125 
C 45.09375 36.671875 46.5 33.234375 46.5 28.203125 
C 46.5 22.359375 44.90625 17.625 43 13.28125 
C 39.703125 5.828125 31.90625 1 25 1 
C 17.703125 1 13.90625 6.84375 13.90625 13.6875 
C 13.90625 14.59375 13.90625 15.90625 14.296875 17.421875 
L 20.796875 43.5 
C 24.09375 56.890625 32.5 68.953125 42.203125 68.953125 
C 49.40625 68.953125 51.40625 63.84375 51.40625 59.34375 
z
" id="CMMI12-12"/>
     <path d="M 26.296875 24.9375 
C 26.296875 32.140625 25.59375 44.359375 19.59375 57.265625 
C 14.796875 67.6875 6.59375 75 5.40625 75 
C 5.09375 75 4.703125 74.890625 4.703125 74.390625 
C 4.703125 74.1875 4.796875 74.09375 4.90625 73.890625 
C 9.703125 68.875 21.90625 56.171875 21.90625 25.046875 
C 21.90625 -6.1875 9.796875 -18.90625 4.90625 -23.90625 
C 4.796875 -24.109375 4.703125 -24.203125 4.703125 -24.40625 
C 4.703125 -24.90625 5.09375 -25 5.40625 -25 
C 6.5 -25 15 -17.609375 19.90625 -6.59375 
C 24.90625 4.515625 26.296875 15.328125 26.296875 24.9375 
z
" id="CMR17-41"/>
     <path d="M 3.09375 -16.953125 
C 3 -17.4375 2.796875 -18.03125 2.796875 -18.609375 
C 2.796875 -20.109375 4 -21.109375 5.5 -21.109375 
C 7 -21.109375 8.40625 -20.109375 9 -18.71875 
C 9.40625 -17.828125 12.203125 -6.09375 15.40625 6.078125 
C 17.40625 1.09375 21.09375 -1 25 -1 
C 36.296875 -1 49.09375 12.96875 49.09375 28.03125 
C 49.09375 38.703125 42.59375 44 35.703125 44 
C 26.90625 44 16.203125 34.90625 12.90625 21.640625 
z
M 24.90625 1 
C 18.09375 1 16.40625 8.875 16.40625 10.078125 
C 16.40625 10.671875 18.90625 20.140625 19.203125 21.640625 
C 24.296875 41.5 34.09375 41.984375 35.59375 41.984375 
C 40.09375 41.984375 42.59375 37.90625 42.59375 32.015625 
C 42.59375 26.9375 39.90625 17.046875 38.203125 12.859375 
C 35.203125 5.984375 30 1 24.90625 1 
z
" id="CMMI12-26"/>
    </defs>
    <g transform="translate(681.942857 432.8064)scale(0.22 -0.22)">
     <use transform="scale(0.996264)" xlink:href="#CMR17-8"/>
     <use transform="translate(94.183889 0)scale(0.996264)" xlink:href="#CMR17-61"/>
     <use transform="translate(193.572686 0)scale(0.996264)" xlink:href="#CMR17-40"/>
     <use transform="translate(228.853454 0)scale(0.996264)" xlink:href="#CMSS17-82"/>
     <use transform="translate(289.269609 0)scale(0.996264)" xlink:href="#CMMI12-12"/>
     <use transform="translate(349.863625 0)scale(0.996264)" xlink:href="#CMR17-41"/>
     <use transform="translate(385.144393 36.153639)scale(0.697382)" xlink:href="#CMR17-49"/>
     <use transform="translate(417.127575 36.153639)scale(0.697382)" xlink:href="#CMMI12-61"/>
     <use transform="translate(451.269866 36.153639)scale(0.697382)" xlink:href="#CMMI12-26"/>
    </g>
   </g>
   <g id="text_6">
    <!-- $\Gamma$ -->
    <defs>
     <path d="M 51.796875 68 
L 5.09375 68 
L 5.09375 65.390625 
C 12 65.390625 13.09375 65.390625 13.09375 60.890625 
L 13.09375 7.078125 
C 13.09375 2.59375 12 2.59375 5.09375 2.59375 
L 5.09375 0 
C 8 0.1875 13.59375 0.1875 16.703125 0.1875 
C 20.796875 0.1875 25.59375 0.1875 29.703125 0 
L 29.703125 2.59375 
L 27.5 2.59375 
C 19.90625 2.59375 19.703125 3.59375 19.703125 7.1875 
L 19.703125 61.5 
C 19.703125 64.890625 19.90625 65.390625 23.90625 65.390625 
L 34.90625 65.390625 
C 50.09375 65.390625 50.90625 58.40625 52.40625 45.921875 
L 54.203125 45.921875 
z
" id="CMR17-0"/>
    </defs>
    <g transform="translate(681.942857 290.88)scale(0.22 -0.22)">
     <use transform="scale(0.996264)" xlink:href="#CMR17-0"/>
    </g>
   </g>
  </g>
 </g>
 <defs>
  <clipPath id="p41ccd627c8">
   <rect height="443.52" width="669.6" x="108" y="69.12"/>
  </clipPath>
 </defs>
</svg>
